<?xml version="1.0" encoding="UTF-8" standalone="no"?>
<svg
   xmlns:osb="http://www.openswatchbook.org/uri/2009/osb"
   xmlns:dc="http://purl.org/dc/elements/1.1/"
   xmlns:cc="http://creativecommons.org/ns#"
   xmlns:rdf="http://www.w3.org/1999/02/22-rdf-syntax-ns#"
   xmlns:svg="http://www.w3.org/2000/svg"
   xmlns="http://www.w3.org/2000/svg"
   xmlns:sodipodi="http://sodipodi.sourceforge.net/DTD/sodipodi-0.dtd"
   xmlns:inkscape="http://www.inkscape.org/namespaces/inkscape"
   viewBox="0 0 64 64"
   enable-background="new 0 0 64 64"
   id="svg4202"
   version="1.1"
   inkscape:version="0.91 r13725"
   sodipodi:docname="atombuild.svg">
  <metadata
     id="metadata4228">
    <rdf:RDF>
      <cc:Work
         rdf:about="">
        <dc:format>image/svg+xml</dc:format>
        <dc:type
           rdf:resource="http://purl.org/dc/dcmitype/StillImage" />
      </cc:Work>
    </rdf:RDF>
  </metadata>
  <defs
     id="defs4226">
    <linearGradient
       id="linearGradient5837"
       osb:paint="solid">
      <stop
         style="stop-color:#000000;stop-opacity:1;"
         offset="0"
         id="stop5839" />
    </linearGradient>
  </defs>
  <sodipodi:namedview
     pagecolor="#ffffff"
     bordercolor="#666666"
     borderopacity="1"
     objecttolerance="10"
     gridtolerance="10"
     guidetolerance="10"
     inkscape:pageopacity="0"
     inkscape:pageshadow="2"
     inkscape:window-width="1440"
     inkscape:window-height="826"
     id="namedview4224"
     showgrid="false"
     inkscape:zoom="7.146303"
     inkscape:cx="32.287555"
     inkscape:cy="28.723039"
     inkscape:window-x="0"
     inkscape:window-y="0"
     inkscape:window-maximized="0"
     inkscape:current-layer="svg4202" />
  <g
     fill="#fbed21"
     id="g4204">
    <path
       opacity=".62"
       d="m39.11 49.04c6.447-6.442 5.87-17.448-1.276-24.599-7.15-7.149-18.15-7.724-24.599-1.279-6.443 6.437-16.529 28.11-9.38 35.26 7.153 7.151 28.819-2.94 35.26-9.378"
       id="path4206" />
    <path
       opacity=".62"
       d="m40.988 42.46c5.354-5.35 4.876-14.492-1.06-20.432-5.94-5.938-15.08-6.415-20.432-1.062-5.348 5.346-13.729 23.349-7.791 29.28 5.941 5.941 23.941-2.441 29.28-7.789"
       id="path4208" />
  </g>
  <path
     fill="#d1d2d3"
     d="m27.819 36.04c6.091 6.091 11.02 12.517 14.546 18.616.492-3.073 2.555-7.911 8.781-18.06 12.366-20.16 13.64-34.568 12.288-35.914-.04-.043-.083-.085-.127-.126-.042-.044-.085-.087-.129-.127-1.344-1.357-15.746-.074-35.914 12.289-10.149 6.226-14.992 8.285-18.06 8.779 6.097 3.521 12.527 8.455 18.616 14.546"
     id="path4210"
     style="fill:#b2e198;fill-opacity:0.94117647" />
  <path
     fill="#86a7ac"
     d="m59.4.082c-5.729.485-17.372 3.584-32.14 12.637-10.149 6.226-14.992 8.285-18.06 8.779 6.097 3.521 12.527 8.456 18.616 14.546.256.256.492.516.75.771-1.875-17.11 16.966-28.459 30.833-36.733"
     id="path4212"
     style="fill:#04a171;fill-opacity:0.43127963" />
  <path
     fill="#de374b"
     d="m33.577 52.628c3.112 3.114 5.635 6.396 7.436 9.516.249-1.572 1.303-4.046 4.484-9.234 6.32-10.305 6.977-17.667 6.281-18.355-.02-.021-.046-.042-.065-.063s-.042-.046-.065-.065c-.687-.692-8.05-.037-18.354 6.281-5.187 3.182-7.663 4.235-9.236 4.486 3.121 1.797 6.407 4.322 9.519 7.434"
     id="path4214"
     style="fill:#66585c;fill-opacity:1" />
  <path
     fill="#c5344d"
     d="m41.699 44.09c-2.653 3.278-4.675 7.455-5.208 11.729 1.787 2.115 3.326 4.255 4.521 6.323.249-1.572 1.303-4.046 4.484-9.234 5.146-8.39 6.534-14.828 6.5-17.302-3.415 2.852-7.447 4.955-10.297 8.484"
     id="path4216"
     style="fill:#584a4e;fill-opacity:0.94117647" />
  <path
     fill="#de374b"
     d="m9.52 28.46c3.112 3.114 5.634 6.397 7.435 9.516.249-1.572 1.302-4.046 4.487-9.234 6.318-10.305 6.971-17.667 6.279-18.356-.02-.022-.044-.042-.066-.063-.024-.022-.042-.046-.065-.065-.686-.693-8.05-.037-18.354 6.281-5.186 3.182-7.662 4.235-9.236 4.486 3.121 1.799 6.408 4.324 9.52 7.435"
     id="path4218"
     style="fill:#66585c;fill-opacity:1" />
  <path
     fill="#c5344d"
     d="m12.844 21.432c5.595-2.679 11.441-5.706 14.918-10.973-.016-.022-.026-.057-.026-.057-.035-.037-.059-.057-.081-.079-.024-.022-.042-.046-.065-.065-.686-.693-8.05-.037-18.354 6.281-5.186 3.182-7.662 4.235-9.236 4.486 2.104 1.213 4.279 2.778 6.427 4.607 1.902-1.645 4.03-3.057 6.417-4.2"
     id="path4220"
     style="fill:#584a4e;fill-opacity:1" />
  <path
     fill="#243438"
     d="m53.03 11.06c1.724 1.486 3.138 3.082 4.179 4.618.071-.815.52-2.129 1.965-4.916 2.869-5.534 2.928-9.347 2.546-9.673-.009-.013-.022-.024-.035-.03-.009-.011-.024-.024-.035-.033-.38-.33-4.14.28-9.21 3.912-2.546 1.832-3.78 2.463-4.578 2.653 1.667.809 3.454 1.985 5.168 3.469"
     id="path4222" />
  <g
     id="g4321"
     transform="matrix(0,0.4,-0.4,0,54.666878,8.2629037)">
    <path
       id="path4305"
       d="m 61.778,53.861 c 1.679,1.604 1.733,4.263 0.132,5.938 l -0.268,0.275 C 60.04,61.75 56.874,61.263 55.2,59.661 L 13.467,19.7 19.536,13.355 Z"
       inkscape:connector-curvature="0"
       style="fill:#fbb042" />
    <path
       id="path4307"
       d="m 22.03,23 c -1.564,2.148 -0.937,3.964 0.555,5.391 l 33.12,31.744 c 1.49,1.428 3.332,1.972 5.41,0.316 z"
       inkscape:connector-curvature="0"
       style="fill:#e8a042" />
    <g
       id="g4309"
       transform="translate(-1.054,-0.096)">
      <path
         id="path4311"
         d="M 13.187,22.986 C 13.981,20.749 28.124,7.616 30.795,7.038 33.465,6.46 43.52,6.366 44.217,8.625 c 0.496,1.599 -0.333,1.771 -0.721,1.804 -0.5,0.042 -8.227,1.733 -9.525,2.743 -1.298,1.01 -3.104,7.649 -2.743,8.515 0.362,0.866 -0.215,2.092 -0.36,2.381 -0.145,0.289 -5.99,5.268 -6.423,5.268 -0.433,0 -4.112,-1.226 -4.834,0.434 -0.722,1.66 -7.218,-4.547 -6.424,-6.784"
         inkscape:connector-curvature="0"
         style="fill:#627c7f" />
    </g>
    <path
       id="path4313"
       d="m 18.57,39.05 c -1.3,1.354 -3.23,1.623 -4.306,0.593 L 3.058,28.92 C 1.979,27.889 2.433,26.212 3.731,24.855 l 3.532,-3.691 c 1.299,-1.359 3.129,-2.067 4.207,-1.038 l 11.207,10.725 c 1.077,1.029 0.723,3.15 -0.577,4.511 z"
       inkscape:connector-curvature="0"
       style="fill:#7c9c9f" />
  </g>
</svg>
